# xmcd
#
# Track frame offsets:
#  150
#  21273
#  48064
#  71789
#  102442
#  119359
#  136092
#  160417
#  187391
#  208079
#  229622
#  261713
#
# Disc length: 3867 seconds
#
# Revision: 0
# Processed by: cddbd v1.5.1PL2 Copyright (c) Steve Scherf et al.
# Submitted via: Collectorz.com_Music_Collector 6.11
#
DISCID=b60f190c
DTITLE=James, Etta - Matriarch Of The Blues
DYEAR=2000
DGENRE=Blues
TTITLE0=Born On The Bayou
TTITLE1=Come Back Baby
TTITLE2=Don't Let My Baby Ride
TTITLE3=Gotta Serve Somebody
TTITLE4=Hawg For Ya
TTITLE5=Hound Dog
TTITLE6=Let's Straighten It Out
TTITLE7=Miss You
TTITLE8=Rhymes
TTITLE9=Try A Little Tenderness
TTITLE10=Walking The Back Streets
TTITLE11=You're Gonna Make Me Cry
EXTD=
EXTT0=
EXTT1=
EXTT2=
EXTT3=
EXTT4=
EXTT5=
EXTT6=
EXTT7=
EXTT8=
EXTT9=
EXTT10=
EXTT11=
PLAYORDER=
